<?xml version="1.0" encoding="utf-8"?>
<!-- Generator: Adobe Illustrator 23.0.6, SVG Export Plug-In . SVG Version: 6.00 Build 0)  -->
<svg version="1.1" id="Layer_1" xmlns="http://www.w3.org/2000/svg" xmlns:xlink="http://www.w3.org/1999/xlink" x="0px" y="0px"
	 viewBox="0 0 200 70" style="enable-background:new 0 0 200 70;" xml:space="preserve">
<style type="text/css">
	.st0{fill:#EF4E23;}
	.st1{fill:#231F20;}
</style>
<g>
	<circle class="st0" cx="171.9" cy="50.2" r="19"/>
	<g>
		<path class="st1" d="M90.4,0.8h9.9c10.8,0,14.4,1.7,14.4,14.1v14.7c0,7.8-2.3,12.5-14.4,12.5h-9.9V0.8z M100,36.2
			c4.7,0,5.1-1.8,5.1-5.7v-17c0-5.5-0.2-6.7-5.1-6.7V36.2z"/>
		<path class="st1" d="M126.4,26.5v6.7c0,2,0.7,3.2,1.9,3.2c1.4,0,1.9-1.2,1.9-3.2V29h9.2v4.9c0,6.3-4.6,8.6-11.1,8.6
			c-5.9,0-11.1-2.7-11.1-8.8V17.9c0-6,3.9-9.3,11.1-9.3c5.9,0,11.1,2.2,11.1,9.3v8.7H126.4z M130.3,21v-4.5c0-1.3-0.6-2-1.9-2
			c-1.3,0-1.9,0.7-1.9,2V21H130.3z"/>
		<path class="st1" d="M142,20.6v-3.1c0-6.7,5.6-9,11.1-9c5.5,0,11.1,2.4,11.1,9v24.5h-9.2v-3.9h-0.1c-1.1,2.4-2.8,4.3-6.4,4.3
			c-4,0-6.4-2.4-6.4-6.8v-4.9c0-8.7,13-7.6,13-13.8c0-1.3-0.4-2.4-1.9-2.4s-1.9,1.1-1.9,2.4v3.6H142z M151.1,30v3.6
			c0,1.2,0.8,1.7,1.7,1.7c1.9,0,2.1-1.3,2.1-4.2v-5.7C153.1,26.6,151.1,27.4,151.1,30z"/>
		<path class="st1" d="M175.8,42.1h-9.2V0.8h9.2V42.1z"/>
	</g>
	<path class="st0" d="M24.8,0.8v30.8c0,5.7-1.9,11.3-12.2,11.3c-3.8,0-12-1.2-12-10.1v-6.7h9.6v6c0,2.2,0.1,4.2,2.5,4.2
		s2.5-2,2.5-4.2V0.8H24.8z"/>
	<path class="st0" d="M56.4,8.5c-3.6,0-5.8,1.6-6.7,4.5h-0.1V8.9h-0.1h-9.1h-0.1v23c0,1.4-0.2,3-2,3c-1.7,0-1.9-1.6-1.9-3v-23h-9.2
		v26c0,4.7,2.1,7.6,6.2,7.6c3.6,0,5.8-1.6,6.7-4.5h0.1v4.1h0.1h9.1h0.1v-23c0-1.4,0.2-3,2-3c1.7,0,1.9,1.6,1.9,3v23h9.2v-26
		C62.6,11.4,60.5,8.5,56.4,8.5z"/>
	<path class="st0" d="M74.3,24.1h0.1l4.7-15.1H88l-5.3,14.8l5.7,18.3h-9.3l-4.7-17.3h-0.1v17.3h-9.2V0.8h9.2V24.1z"/>
	<g>
		<path class="st1" d="M172.3,49.1V47c0-0.6-0.2-1.2-1-1.2c-0.7,0-0.9,0.6-0.9,1.2v8.5c0,0.6,0.2,1.2,0.9,1.2c0.8,0,1-0.6,1-1.2
			v-2.6h3.5v2c0,2.8-1.5,4.2-4.5,4.2c-2.3,0-4.5-1-4.5-4.4v-6.9c0-3.5,2.1-4.4,4.5-4.4c2.6,0,4.5,0.8,4.5,4.1v1.7H172.3z"/>
		<path class="st1" d="M185.7,47.8v6.9c0,3.5-2.1,4.4-4.5,4.4s-4.5-1-4.5-4.4v-6.9c0-3.5,2.1-4.4,4.5-4.4S185.7,44.3,185.7,47.8z
			 M180.3,47v8.5c0,0.6,0.2,1.2,0.9,1.2c0.7,0,0.9-0.6,0.9-1.2V47c0-0.6-0.2-1.2-0.9-1.2C180.5,45.8,180.3,46.3,180.3,47z"/>
		<path class="st1" d="M191.9,43.6l1.5,10.8h0l1.5-10.8h5.1v15.2h-3.2v-13h0l-2,13h-3.1l-2-13h0v13h-2.8V43.6H191.9z"/>
	</g>
	<circle class="st1" cx="153" cy="51.3" r="5.3"/>
	<g>
		<path class="st1" d="M5,49.8c-0.1-0.9-0.7-1.3-1.9-1.3s-1.8,0.4-1.8,1.1c0,0.6,0.4,0.8,1.2,1l1.5,0.3c1.5,0.3,2.2,0.7,2.2,1.9
			c0,1.4-1.1,2.2-3.1,2.2C1.1,55,0,54.1,0,52.5h1.1c0,1.1,0.8,1.6,2.2,1.6c1.3,0,1.9-0.5,1.9-1.2c0-0.6-0.4-0.9-1.2-1l-1.7-0.3
			c-1.4-0.2-2-0.8-2-1.9c0-1.3,1-2.1,3-2.1C5,47.6,6,48.4,6,49.8H5z"/>
		<path class="st1" d="M8.9,50.4c0.4-0.6,1.1-0.9,2-0.9c1.6,0,2.8,1.2,2.8,2.8c0,1.6-1.1,2.7-2.8,2.7c-0.8,0-1.5-0.3-2-0.9v2.6H8
			v-7.1h0.9V50.4z M8.9,52.2c0,1.2,0.7,1.9,1.9,1.9c1.2,0,1.9-0.7,1.9-1.9c0-1.2-0.7-1.9-1.9-1.9C9.7,50.3,8.9,51.1,8.9,52.2z"/>
		<path class="st1" d="M17.2,55c-1.3,0-2-0.6-2-1.6c0-1.2,0.9-1.5,2.4-1.6c1.2-0.1,1.8-0.1,1.8-0.7c0-0.6-0.4-0.8-1.4-0.8
			c-1.1,0-1.5,0.3-1.6,1h-1c0.1-1.2,0.9-1.8,2.5-1.8c1.7,0,2.4,0.5,2.4,1.7v2.1c0,0.5,0.1,0.8,0.5,0.8c0.1,0,0.2,0,0.3,0v0.8
			c-0.3,0-0.6,0.1-0.7,0.1c-0.5,0-0.8-0.3-0.9-0.9C18.9,54.6,18.2,55,17.2,55z M17.8,52.5c-1,0.1-1.6,0.2-1.6,0.8
			c0,0.5,0.4,0.8,1.2,0.8c1.2,0,2-0.6,2-1.2v-0.8C19.1,52.3,18.6,52.4,17.8,52.5z"/>
		<path class="st1" d="M26.6,51.4c-0.2-0.6-0.8-1-1.5-1c-1.2,0-1.9,0.7-1.9,1.9c0,1.2,0.8,1.9,1.8,1.9c0.9,0,1.5-0.5,1.6-1.2h1
			C27.4,54.2,26.4,55,25,55c-1.7,0-2.8-1.1-2.8-2.7c0-1.7,1.1-2.8,2.8-2.8c1.4,0,2.4,0.7,2.6,1.9H26.6z"/>
		<path class="st1" d="M29.9,52.4c0,1,0.7,1.7,1.9,1.7c0.8,0,1.4-0.3,1.7-0.9h1.1c-0.4,1.1-1.4,1.8-2.8,1.8c-1.8,0-2.9-1.1-2.9-2.7
			c0-1.7,1.1-2.8,2.9-2.8c1.8,0,2.8,1,2.8,2.8v0.2H29.9z M33.6,51.7c-0.1-0.9-0.8-1.4-1.8-1.4c-1,0-1.7,0.5-1.8,1.4H33.6z"/>
		<path class="st1" d="M41,50.5c0.5-0.6,1.2-1.1,2.1-1.1c1,0,1.6,0.4,1.8,1.2c0.6-0.8,1.3-1.2,2.2-1.2c1.6,0,2,0.9,2,2.4v3h-0.9v-3
			c0-1.1-0.3-1.6-1.2-1.6c-1.1,0-1.9,0.8-1.9,1.9v2.6h-0.9v-3c0-1.1-0.3-1.6-1.2-1.6c-1.1,0-1.9,0.8-1.9,1.9v2.6h-0.9v-5.2H41V50.5z
			"/>
		<path class="st1" d="M53,55c-1.3,0-2-0.6-2-1.6c0-1.2,0.9-1.5,2.4-1.6c1.2-0.1,1.8-0.1,1.8-0.7c0-0.6-0.4-0.8-1.4-0.8
			c-1.1,0-1.5,0.3-1.6,1h-1c0.1-1.2,0.9-1.8,2.5-1.8c1.7,0,2.4,0.5,2.4,1.7v2.1c0,0.5,0.1,0.8,0.5,0.8c0.1,0,0.2,0,0.3,0v0.8
			c-0.3,0-0.6,0.1-0.7,0.1c-0.5,0-0.8-0.3-0.9-0.9C54.7,54.6,53.9,55,53,55z M53.6,52.5c-1,0.1-1.6,0.2-1.6,0.8
			c0,0.5,0.4,0.8,1.2,0.8c1.2,0,2-0.6,2-1.2v-0.8C54.9,52.3,54.3,52.4,53.6,52.5z"/>
		<path class="st1" d="M59.4,48.3v1.3h1.3v0.8h-1.3v3.1c0,0.4,0.2,0.6,0.6,0.6c0.2,0,0.4,0,0.6-0.1v0.9c-0.3,0-0.6,0.1-0.9,0.1
			c-0.9,0-1.3-0.4-1.3-1.2v-3.4h-0.9v-0.8h0.9v-1.3H59.4z"/>
		<path class="st1" d="M63.5,48.3v1.3h1.3v0.8h-1.3v3.1c0,0.4,0.2,0.6,0.6,0.6c0.2,0,0.4,0,0.6-0.1v0.9c-0.3,0-0.6,0.1-0.9,0.1
			c-0.9,0-1.3-0.4-1.3-1.2v-3.4h-0.9v-0.8h0.9v-1.3H63.5z"/>
		<path class="st1" d="M66.9,52.4c0,1,0.7,1.7,1.9,1.7c0.8,0,1.4-0.3,1.7-0.9h1.1c-0.4,1.1-1.4,1.8-2.8,1.8c-1.8,0-2.9-1.1-2.9-2.7
			c0-1.7,1.1-2.8,2.9-2.8c1.8,0,2.8,1,2.8,2.8v0.2H66.9z M70.6,51.7c-0.1-0.9-0.8-1.4-1.8-1.4c-1,0-1.7,0.5-1.8,1.4H70.6z"/>
		<path class="st1" d="M74.2,50.5c0.5-0.7,1.1-1,1.9-1c0.2,0,0.3,0,0.4,0.1v1c-0.3-0.1-0.5-0.1-0.7-0.1c-0.9,0-1.7,0.8-1.7,1.9v2.5
			h-0.9v-5.2h0.9V50.5z"/>
		<path class="st1" d="M81.5,51.2c-0.1-0.6-0.6-0.9-1.5-0.9c-0.9,0-1.4,0.3-1.4,0.7c0,0.5,0.4,0.6,1.2,0.7l1.1,0.2
			c1.2,0.2,1.6,0.5,1.6,1.5c0,1.1-0.9,1.6-2.6,1.6c-1.6,0-2.4-0.6-2.6-1.8h1c0.1,0.7,0.6,1,1.5,1c1.1,0,1.6-0.3,1.6-0.8
			c0-0.4-0.3-0.5-0.9-0.6l-1.2-0.2c-1.2-0.2-1.8-0.5-1.8-1.4c0-1.1,0.8-1.7,2.3-1.7c1.6,0,2.4,0.6,2.4,1.7H81.5z"/>
		<path class="st1" d="M84.5,53.7h1.2v1.2h-1.2V53.7z"/>
		<path class="st1" d="M97.2,48.4c0.8,0.6,1.1,1.5,1.1,2.9c0,1.4-0.3,2.3-1.1,2.9c-0.7,0.6-1.6,0.6-2.9,0.6h-2.5v-7h2.5
			C95.6,47.8,96.5,47.9,97.2,48.4z M92.1,48.1v6.5h2.1c1.1,0,1.9-0.1,2.6-0.5c0.8-0.5,1.1-1.4,1.1-2.8c0-1.3-0.4-2.2-1.1-2.7
			c-0.7-0.4-1.6-0.5-2.7-0.5H92.1z"/>
		<path class="st1" d="M102.6,54.9c-1.7,0-2.7-1-2.7-2.7c0-1.6,1.1-2.7,2.7-2.7c1.6,0,2.7,1.1,2.7,2.7h-5.1c0.1,1.6,1,2.4,2.4,2.4
			c1,0,1.8-0.5,2-1.2h0.4C104.8,54.3,103.9,54.9,102.6,54.9z M104.9,52c0-1.4-1.1-2.1-2.3-2.1c-1.3,0-2.3,0.8-2.4,2.1H104.9z"/>
		<path class="st1" d="M111.9,53.2c-0.1,1-1.1,1.7-2.5,1.7c-1.7,0-2.7-1-2.7-2.7c0-1.6,1.1-2.6,2.7-2.6c1.3,0,2.3,0.6,2.4,1.5h-0.4
			c-0.3-0.8-1-1.2-2-1.2c-1.4,0-2.4,0.9-2.4,2.4c0,1.5,1,2.4,2.4,2.4c1.1,0,1.9-0.7,2.1-1.5H111.9z"/>
		<path class="st1" d="M113.6,47.8h0.3v7h-0.3V47.8z"/>
		<path class="st1" d="M120.8,54.8h-0.3v-1.4c-0.1,0.4-0.3,0.6-0.6,0.9c-0.5,0.5-1.3,0.7-1.9,0.7c-1.4,0-1.9-0.6-1.9-1.9v-3.3h0.3
			v2.9c0,1.4,0.3,2.1,1.7,2.1c1.2,0,2.4-0.9,2.3-2.4l0-2.6h0.3V54.8z"/>
		<path class="st1" d="M124.2,54.7c0.2,0,0.5-0.1,0.5-0.1v0.3c-0.2,0.1-0.4,0.1-0.7,0.1c-0.7,0-0.9-0.3-0.9-1.3V50h-0.9v-0.3h0.9
			v-1.7h0.3v1.7h1.2V50h-1.2v3.6C123.5,54.2,123.6,54.7,124.2,54.7z"/>
		<path class="st1" d="M127.5,54.7c0.2,0,0.5-0.1,0.5-0.1v0.3c-0.2,0.1-0.4,0.1-0.7,0.1c-0.7,0-0.9-0.3-0.9-1.3V50h-0.9v-0.3h0.9
			v-1.7h0.3v1.7h1.2V50h-1.2v3.6C126.8,54.2,126.9,54.7,127.5,54.7z"/>
		<path class="st1" d="M131.9,54.9c-1.7,0-2.7-1-2.7-2.7c0-1.6,1.1-2.7,2.7-2.7c1.6,0,2.7,1.1,2.7,2.7h-5.1c0.1,1.6,1,2.4,2.4,2.4
			c1,0,1.8-0.5,2-1.2h0.4C134.1,54.3,133.2,54.9,131.9,54.9z M134.2,52c0-1.4-1.1-2.1-2.3-2.1c-1.3,0-2.3,0.8-2.4,2.1H134.2z"/>
		<path class="st1" d="M136.3,54.8v-5.1h0.3v1.3c0.3-1.1,1-1.5,1.7-1.5c0.3,0,0.6,0,0.7,0.1V50c-0.1-0.1-0.3-0.2-0.8-0.2
			c-1,0-1.6,1.3-1.6,2.2v2.7H136.3z"/>
	</g>
</g>
</svg>
