<svg xmlns="http://www.w3.org/2000/svg" id="payments-01" width="176" height="90.625" viewBox="0 0 176 90.625">
    <defs>
        <style>
            .cls-1,.cls-2{fill:#fff}.cls-1{fill-rule:evenodd}
        </style>
    </defs>
    <path id="Path_524" d="M15.041 34.2l4.644-15.37h4.165L19.206 34.2zm-1.857-15.37l-3.716 6.531A15.525 15.525 0 0 0 7.7 29.017h-.06c.06-1.378-.15-3.056-.15-4.015l-.419-6.172H.06l-.06.419a2.876 2.876 0 0 1 3.146 2.757L4.524 34.2h4.315l8.719-15.37zM45.513 34.2h4.225L48.36 18.86h-5.544L34.637 34.2h4.524l1.049-2.277h5.184zm-.479-9.079l.21 3.925h-3.656l1.558-3.356c.479-1.139 1.558-3.416 1.828-4.165h.06c-.06.929-.03 2.487 0 3.6zm-16.809 9.5c2.577 0 5.034-.689 6.322-3.805.719-1.8.03-3.745-2.876-5.573l-.959-.6c-1.258-.779-1.828-1.378-1.408-2.217a1.968 1.968 0 0 1 1.768-.809 5.132 5.132 0 0 1 3.236 1.408l2.277-2.667a9.288 9.288 0 0 0-5.394-1.858c-3.146 0-5.064 1.318-5.783 3.056-1.139 2.727-.09 4.285 2.307 5.933l.809.509c1.618.929 2.337 1.468 1.768 2.457a1.93 1.93 0 0 1-1.828.869 7.826 7.826 0 0 1-4.494-1.5l-1.978 3.026a11.266 11.266 0 0 0 6.233 1.77z" class="cls-1" data-name="Path 524" transform="translate(0 -12.932)"/>
    <path id="Path_525" d="M50.243 82.6a71.614 71.614 0 0 1 7.551.39l-.12 3.176a79.421 79.421 0 0 0-15.311-1.528A71.229 71.229 0 0 0 27.891 86.1c.24-.09.509-.15.779-.24a71.91 71.91 0 0 1 21.573-3.26m0-.9c-16.719 0-29.094 5.543-37.543 9.648v.509a73.99 73.99 0 0 1 29.633-6.322 79.49 79.49 0 0 1 16.15 1.708l.21-5.064a68.493 68.493 0 0 0-8.449-.479z" class="cls-2" data-name="Path 525" transform="translate(-8.895 -57.194)"/>
    <path id="Path_526" d="M243.8-.057a16.857 16.857 0 0 0-10.757 3.865 16.881 16.881 0 1 0-.03 26.007A16.872 16.872 0 1 0 243.8-.057zm0 32.509a15.58 15.58 0 0 1-9.858-3.506 16.641 16.641 0 0 0 4.464-7.281h-1.286a15.647 15.647 0 0 1-4.1 6.472 15.58 15.58 0 0 1-4.075-6.472h-1.288a16.881 16.881 0 0 0 4.4 7.251 15.613 15.613 0 1 1-9.8-27.745 15.434 15.434 0 0 1 9.8 3.536 16.881 16.881 0 0 0-4.4 7.251h1.288a15.58 15.58 0 0 1 4.075-6.472 15.455 15.455 0 0 1 4.1 6.472h1.288a16.641 16.641 0 0 0-4.464-7.281 15.637 15.637 0 1 1 9.856 27.775z" class="cls-2" data-name="Path 526" transform="translate(-143.846 .082)"/>
    <path id="Path_527" d="M349.977 49.869l-.15-.569h-1.348l-1.079 5.783h1.588l.479-2.637c.479-1.738 1.2-1.618 1.588-1.618l.419-1.5a1.708 1.708 0 0 0-1.5.539z" class="cls-2" data-name="Path 527" transform="translate(-243.31 -34.504)"/>
    <path id="Path_528" d="M275.537 49.424l.449-2.337h.809l.27-1.258h-.839l.33-1.528h-1.588l-1.079 5.483c-.3 1.588.9 1.8 1.258 1.8a2.31 2.31 0 0 0 1.169-.27l.09-1.169c-.929.148-.959-.272-.869-.721z" class="cls-2" data-name="Path 528" transform="translate(-191.791 -31.002)"/>
    <path id="Path_529" d="M288.356 52.436c.18-.929.6-3.236-2.157-3.236-2.547 0-2.876 2.517-2.936 2.876a2.543 2.543 0 0 0 2.637 2.936 4.935 4.935 0 0 0 2.008-.27l.24-1.2a11.05 11.05 0 0 1-1.768.15c-.629 0-1.648.03-1.438-1.258zm-3.326-1.079v-.09c0-.03 0-.06.03-.06a.3.3 0 0 1 .03-.12.228.228 0 0 1-.03.12c0 .03 0 .06-.03.06v.09a1.22 1.22 0 0 1 1.258-1.049c.629 0 .809.479.719 1.049z" class="cls-2" data-name="Path 529" transform="translate(-198.379 -34.434)"/>
    <path id="Path_530" d="M262.135 51.935a8.439 8.439 0 0 0-1.135-.63c-.33-.15-.569-.689.03-.839a5.639 5.639 0 0 1 1.558.09c-.03 0-.09-.03-.12-.03s-.09-.03 0 0c.03 0 .06.03.12.03l.36-1.169a3.9 3.9 0 0 0-1.558-.21c-.21 0-2.1-.03-2.4 1.378-.21 1.079.18 1.5.539 1.678.6.27.959.509 1.258.659a.458.458 0 0 1-.21.869 6.021 6.021 0 0 1-2.067-.15l-.21 1.2a6.185 6.185 0 0 0 1.858.21c.389 0 2.247.09 2.517-1.648a1.257 1.257 0 0 0-.54-1.438z" class="cls-2" data-name="Path 530" transform="translate(-180.907 -34.412)"/>
    <path id="Path_531" d="M220.012 45.3l-1.918 4.225-.3-4.225h-2.517l-1.377 6.981h1.588l.959-5.064.419 5.064h1.5l2.217-4.944-.929 4.944h1.618l1.318-6.981z" class="cls-2" data-name="Path 531" transform="translate(-149.81 -31.702)"/>
    <path id="Path_532" d="M245.2 49.53a1.3 1.3 0 0 0 .15-.03 1.3 1.3 0 0 1-.15.03z" class="cls-2" data-name="Path 532" transform="translate(-171.732 -34.644)"/>
    <path id="Path_533" d="M243.937 49.1a11.353 11.353 0 0 0-2.067.21l-.24 1.258a17.324 17.324 0 0 1 1.948-.18c.539.03 1.139-.06.959.809-.39.03-3.236-.39-3.685 2.007a1.536 1.536 0 0 0 1.648 1.768 2.2 2.2 0 0 0 1.318-.33l.21.33h1.472l.629-3.146c.171-.838.445-2.726-2.192-2.726zm.24 3.865a1.036 1.036 0 0 1-1.348.659c-.509-.21-.39-.809.12-1.139a1.875 1.875 0 0 1 1.348-.15z" class="cls-2" data-name="Path 533" transform="translate(-168.672 -34.364)"/>
    <path id="Path_534" d="M316.8 45.778a1.93 1.93 0 0 1 1.2.27l1.019-1.019a2.606 2.606 0 0 0-2.157-.929 3.769 3.769 0 0 0-3.536 2.936c-.809 2.936.959 4.4 2.607 4.4a4.288 4.288 0 0 0 1.918-.36l-.449-1.408c-1.618.539-2.757-.27-2.487-1.948a2.112 2.112 0 0 1 1.885-1.942z" class="cls-2" data-name="Path 534" transform="translate(-219.304 -30.862)"/>
    <path id="Path_535" d="M364.429 44.1l-.419 2.217c-.3-.21-.479-.689-1.228-.689-.869 0-2.217-.15-3 2.457-.509 1.768.509 3.356 1.648 3.356a3 3 0 0 0 1.378-.449l.21.449h1.708l1.378-7.341zm-.989 4.584c-.27.719-.659 1.169-1.228 1.169s-1.019-.629-.809-1.438c.33-1.258 1.438-1.768 1.948-1.139a2.1 2.1 0 0 1 .09 1.408z" class="cls-2" data-name="Path 535" transform="translate(-251.89 -30.862)"/>
    <path id="Path_536" d="M332.737 49.1a11.353 11.353 0 0 0-2.067.21l-.24 1.258a17.324 17.324 0 0 1 1.948-.18c.539.03 1.139-.06.959.809-.39.03-3.236-.39-3.685 2.007a1.536 1.536 0 0 0 1.648 1.768 2.2 2.2 0 0 0 1.318-.33l.21.33h1.472l.629-3.146c.205-.838.471-2.726-2.192-2.726zm.27 3.865a1.036 1.036 0 0 1-1.348.659c-.509-.21-.389-.809.12-1.139a1.875 1.875 0 0 1 1.348-.15z" class="cls-2" data-name="Path 536" transform="translate(-230.865 -34.364)"/>
    <path id="Path_537" d="M334.2 49.53c.06 0 .09-.03.12-.03-.03 0-.09.03-.12.03z" class="cls-2" data-name="Path 537" transform="translate(-234.065 -34.644)"/>
    <path id="Path_538" d="M302.977 49.968l-.15-.569h-1.348l-1.079 5.722h1.588l.479-2.637c.449-1.708 1.2-1.588 1.588-1.588l.39-1.5a2.041 2.041 0 0 0-1.468.569z" class="cls-2" data-name="Path 538" transform="translate(-210.393 -34.572)"/>
    <path id="Path_539" d="M466.415 44.615c0 1.288-.839 1.888-2.307 1.888h-2.786v-1.289h2.786a.866.866 0 0 0 .569-.15.6.6 0 0 0 .18-.39.551.551 0 0 0-.18-.419.683.683 0 0 0-.509-.15c-1.318-.06-3.026.06-3.026-1.858a1.81 1.81 0 0 1 2.067-1.8h2.876v1.288h-2.667a.98.98 0 0 0-.569.09.626.626 0 0 0-.24.479.431.431 0 0 0 .3.419 1.744 1.744 0 0 0 .569.09h.779a2.491 2.491 0 0 1 1.678.479 1.72 1.72 0 0 1 .479 1.318m-6.081-1.31a2.491 2.491 0 0 0-1.678-.479h-.779a3.233 3.233 0 0 1-.569-.09.462.462 0 0 1-.3-.419.546.546 0 0 1 .24-.479.98.98 0 0 1 .569-.09h2.667V40.45h-2.876c-1.558 0-2.067.959-2.067 1.8 0 1.918 1.678 1.828 3.026 1.858a.683.683 0 0 1 .509.15.551.551 0 0 1 .18.419.6.6 0 0 1-.18.39.992.992 0 0 1-.569.15h-2.787V46.5h2.787c1.468 0 2.307-.6 2.307-1.888a2.142 2.142 0 0 0-.479-1.318m-5.543 1.948H451.4v-1.226h3.326v-1.229H451.4v-1.078h3.386V40.45h-4.824v6.05h4.824zm-6.352-4.494a3.9 3.9 0 0 0-1.768-.3h-3.3V46.5h1.468v-2.215h1.561a1.468 1.468 0 0 1 1.049.27 2.067 2.067 0 0 1 .24 1.228v.717h1.438v-1.166a1.906 1.906 0 0 0-.24-1.109 1.444 1.444 0 0 0-.749-.509 1.66 1.66 0 0 0 1.049-1.588 1.452 1.452 0 0 0-.749-1.378m-8.21-.3h-4.614l-1.858 1.978-1.768-1.978h-5.813v6.05h5.753l1.858-1.978 1.768 1.978h2.787v-2.035h1.828c1.229 0 2.487-.33 2.487-2.037 0-1.648-1.288-1.978-2.427-1.978m7.041 2.517a1.747 1.747 0 0 1-.689.09l-1.768.06v-1.408h1.768a1.24 1.24 0 0 1 .689.12.545.545 0 0 1 .3.509.8.8 0 0 1-.3.629m-7.041.27h-1.919v-1.528h1.918c.509 0 .869.21.869.719a.773.773 0 0 1-.869.809m-5.543.24l2.217-2.367v4.884zm-3.506 1.768h-3.566v-1.229h3.206v-1.229h-3.206v-1.078h3.625l1.588 1.768zm31.221-6.593h-2.067l-2.727-4.524v4.524h-2.936l-.569-1.318h-3.026l-.569 1.318h-1.678a3.085 3.085 0 0 1-2.127-.689 3.18 3.18 0 0 1-.749-2.307 3.334 3.334 0 0 1 .779-2.367 2.94 2.94 0 0 1 2.217-.689h1.378v1.318h-1.378a1.666 1.666 0 0 0-1.139.33 1.945 1.945 0 0 0-.39 1.378 2.17 2.17 0 0 0 .39 1.438 1.447 1.447 0 0 0 .989.3h.659l2.067-4.764h2.127l2.427 5.693V32.6h2.222l2.547 4.195V32.6h1.5v6.052zm-17.108-6.022h-1.468v6.052h1.468zm-3.086.27a3.377 3.377 0 0 0-1.738-.27h-3.3v6.052h1.408V36.5h1.558a1.69 1.69 0 0 1 1.079.24 2.034 2.034 0 0 1 .21 1.169v.779h1.5v-1.2a1.651 1.651 0 0 0-.27-1.079 1.8 1.8 0 0 0-.689-.509 1.693 1.693 0 0 0 1.049-1.588 1.5 1.5 0 0 0-.809-1.408m-6.052 4.524h-3.386V36.2h3.326v-1.233h-3.326v-1.079h3.386V32.63H431.3v6.052h4.854zm-5.933-4.794h-2.367l-1.768 4.1-1.888-4.1h-2.307v5.693L419.4 32.63h-2.127l-2.573 6.052h1.558l.539-1.318h3.026l.539 1.318h2.938v-4.764l2.127 4.734h1.228l2.127-4.734v4.734h1.468V32.63zm23.4 3.416l-.989-2.4-.989 2.4zm-12.519-.963a1.118 1.118 0 0 1-.719.15h-1.771v-1.319h1.768a1.825 1.825 0 0 1 .719.09.623.623 0 0 1 .27.569.554.554 0 0 1-.27.509m-23.82.959l1.019-2.4.989 2.4z" class="cls-1" data-name="Path 539" transform="translate(-290.445 -22.808)"/>
    <path id="Path_540" d="M416.028 11.319V3.858h49.258v14.293h1.228V2.6H414.8v11.625z" class="cls-2" data-name="Path 540" transform="translate(-290.515 -1.796)"/>
    <path id="Path_541" d="M465.287 64.9v6.592h-49.259V57.2H414.8v15.521h51.715v-8.33a3.685 3.685 0 0 1-1.228.509z" class="cls-2" data-name="Path 541" transform="translate(-290.515 -40.037)"/>
    <path id="Path_542" d="M27.335 185.043a1.3 1.3 0 0 1-1.3 1.3h-9.112a1.306 1.306 0 0 1-1.3-1.3v-9.112a1.306 1.306 0 0 1 1.3-1.3h9.112a1.306 1.306 0 0 1 1.3 1.3zm7.805 6.834a2.277 2.277 0 0 1-2.274 2.271H10.094a2.283 2.283 0 0 1-2.277-2.271v-22.771a2.283 2.283 0 0 1 2.277-2.274h22.772a2.28 2.28 0 0 1 2.274 2.274zM35.793 159H7.158A7.191 7.191 0 0 0 0 166.173v28.632a7.191 7.191 0 0 0 7.158 7.155h28.635a7.191 7.191 0 0 0 7.158-7.155v-28.632A7.191 7.191 0 0 0 35.793 159" class="cls-2" data-name="Path 542" transform="translate(0 -111.335)"/>
    <path id="Path_543" d="M188.385 211.4a9.531 9.531 0 0 1-6.718-2.7 7.91 7.91 0 0 1-2.4-5.618h2.577a5.357 5.357 0 0 0 1.636 3.8 6.975 6.975 0 0 0 4.9 1.951h.021c3.6 0 6.523-2.52 6.523-5.612 0-2.322-1.285-4.162-7.53-5.609a11.273 11.273 0 0 1-5.394-2.478 6.292 6.292 0 0 1-1.8-4.794c-.009-4.045 3.61-7.341 8.063-7.341a8.566 8.566 0 0 1 5.663 2.067 6.909 6.909 0 0 1 2.433 5.228h-2.58c0-2.6-2.472-4.716-5.516-4.716-3 0-5.5 2.175-5.5 4.746 0 2.355.806 3.736 5.21 4.755 4.689 1.1 9.516 2.9 9.528 8.126a7.751 7.751 0 0 1-2.712 5.84 9.615 9.615 0 0 1-6.394 2.349h-.021z" class="cls-2" data-name="Path 543" transform="translate(-125.556 -128.143)"/>
    <path id="Path_544" d="M260.977 211.519A7.79 7.79 0 0 0 253 219.1v.464a7.73 7.73 0 0 0 7.548 7.9h.428a7.982 7.982 0 0 0 0-15.958m7.658 25.609v-11.273h-.072a8.887 8.887 0 0 1-7.587 3.877 10.227 10.227 0 1 1 0-20.446 8.839 8.839 0 0 1 7.587 3.919h.072v-3.4h2.5v27.359h-2.5z" class="cls-2" data-name="Path 544" transform="translate(-175.437 -146.542)"/>
    <path id="Path_545" d="M414.3 211.522a7.79 7.79 0 0 0-7.973 7.593v.455a7.733 7.733 0 0 0 7.548 7.913h.422a7.982 7.982 0 0 0 0-15.958m7.664 17.741v-3.425h-.072a8.947 8.947 0 0 1-7.59 3.88 10.225 10.225 0 1 1 0-20.443 8.719 8.719 0 0 1 7.59 3.919h.072v-3.407h2.49v19.476z" class="cls-2" data-name="Path 545" transform="translate(-282.832 -146.544)"/>
    <path id="Path_546" d="M491.773 217.944v11.386h-2.493v-19.458h2.5v2.813h.066c1.073-2.493 2.96-3.134 5.486-3.3v2.637c-3.419.3-5.552 2.457-5.552 5.948" class="cls-2" data-name="Path 546" transform="translate(-342.679 -146.627)"/>
    <path id="Path_547" d="M529.654 211.527a7.7 7.7 0 0 0-7.589 6.658h15.209a7.736 7.736 0 0 0-7.619-6.661m10.148 8.908h-17.739a7.721 7.721 0 0 0 7.554 7.05 7.362 7.362 0 0 0 6.981-4.6h2.634a10.166 10.166 0 1 1-9.615-13.606 10.385 10.385 0 0 1 10.226 10.439c0 .246-.042.458-.042.71" class="cls-2" data-name="Path 547" transform="translate(-363.844 -146.55)"/>
    <path id="Path_548" d="M349.451 230.3v-3.04h-.072a6.68 6.68 0 0 1-6.265 3.512 8.4 8.4 0 0 1-6.73-2.933 10.019 10.019 0 0 1-1.714-6.292V210.73h2.5v10.787c0 4.045 1.465 7.017 5.939 7.017a5.612 5.612 0 0 0 4.153-1.576c1.72-1.642 2.037-3.581 2.037-5.864v-10.358h2.501V230.3z" class="cls-2" data-name="Path 548" transform="translate(-234.394 -147.565)"/>
</svg>
