<svg xmlns="http://www.w3.org/2000/svg" width="328" height="34.89" viewBox="0 0 328 34.89">
    <defs>
        <style>
            .cls-1,.cls-2{fill:#fff}.cls-1{fill-rule:evenodd}
        </style>
    </defs>
    <g id="payments-02" transform="translate(0 .082)">
        <path id="Path_566" d="M15.055 34.214L19.7 18.83h4.168l-4.645 15.384zM13.2 18.83l-3.723 6.538a15.538 15.538 0 0 0-1.769 3.659h-.06c.06-1.379-.15-3.059-.15-4.019l-.42-6.178H.06l-.06.42a2.879 2.879 0 0 1 3.149 2.759l1.379 12.205h4.319l8.727-15.384zm32.353 15.384h4.228L48.4 18.86h-5.546l-8.187 15.354H39.2l1.05-2.279h5.188zm-.48-9.087l.21 3.929h-3.658l1.559-3.356c.48-1.14 1.559-3.419 1.829-4.168h.06c-.06.93-.03 2.489 0 3.6zM28.25 34.634c2.579 0 5.038-.69 6.328-3.809.72-1.8.03-3.749-2.879-5.578l-.96-.6c-1.26-.78-1.829-1.38-1.409-2.219a1.97 1.97 0 0 1 1.769-.81 5.137 5.137 0 0 1 3.239 1.409l2.279-2.669a9.3 9.3 0 0 0-5.4-1.859c-3.149 0-5.068 1.32-5.788 3.059-1.14 2.729-.09 4.288 2.309 5.938l.81.51c1.619.93 2.339 1.469 1.769 2.459a1.932 1.932 0 0 1-1.829.87 7.833 7.833 0 0 1-4.5-1.5l-1.979 3.029a11.276 11.276 0 0 0 6.241 1.77z" class="cls-1" data-name="Path 566" transform="translate(0 -13.009)"/>
        <path id="Path_567" d="M50.276 82.6a71.678 71.678 0 0 1 7.557.39l-.12 3.179a79.493 79.493 0 0 0-15.324-1.529A71.293 71.293 0 0 0 27.9 86.106c.24-.09.51-.15.78-.24A71.974 71.974 0 0 1 50.276 82.6m0-.9c-16.734 0-29.119 5.548-37.576 9.657v.51a74.055 74.055 0 0 1 29.659-6.328 79.561 79.561 0 0 1 16.164 1.709l.21-5.068a68.555 68.555 0 0 0-8.457-.48z" class="cls-2" data-name="Path 567" transform="translate(-8.891 -57.254)"/>
        <path id="Path_568" d="M243.835-.057a16.872 16.872 0 0 0-10.766 3.869 16.9 16.9 0 1 0-.03 26.031 16.887 16.887 0 1 0 10.8-29.9zm0 32.538a15.594 15.594 0 0 1-9.866-3.509 16.656 16.656 0 0 0 4.468-7.287h-1.29a15.66 15.66 0 0 1-4.109 6.478 15.594 15.594 0 0 1-4.079-6.478h-1.29a16.9 16.9 0 0 0 4.408 7.257 15.627 15.627 0 1 1-9.806-27.77 15.447 15.447 0 0 1 9.806 3.539 16.9 16.9 0 0 0-4.408 7.257h1.29a15.594 15.594 0 0 1 4.079-6.478 15.468 15.468 0 0 1 4.108 6.478h1.29a16.656 16.656 0 0 0-4.468-7.287 15.651 15.651 0 1 1 9.866 27.8z" class="cls-2" data-name="Path 568" transform="translate(-143.792)"/>
        <path id="Path_569" d="M349.979 49.87l-.15-.57h-1.349l-1.08 5.788h1.589l.48-2.639c.48-1.739 1.2-1.619 1.589-1.619l.42-1.5a1.709 1.709 0 0 0-1.5.54z" class="cls-2" data-name="Path 569" transform="translate(-243.218 -34.573)"/>
        <path id="Path_570" d="M275.538 49.428l.45-2.339h.81l.27-1.26h-.84l.33-1.529h-1.589l-1.08 5.488c-.3 1.589.9 1.8 1.26 1.8a2.312 2.312 0 0 0 1.17-.27l.09-1.17c-.931.152-.961-.27-.871-.72z" class="cls-2" data-name="Path 570" transform="translate(-191.719 -31.072)"/>
        <path id="Path_571" d="M288.361 52.439c.18-.93.6-3.239-2.159-3.239-2.549 0-2.879 2.519-2.939 2.879a2.545 2.545 0 0 0 2.639 2.939 4.939 4.939 0 0 0 2.009-.27l.24-1.2a11.06 11.06 0 0 1-1.769.15c-.63 0-1.649.03-1.439-1.26zm-3.329-1.08v-.09c0-.03 0-.06.03-.06a.3.3 0 0 1 .03-.12.228.228 0 0 1-.03.12c0 .03 0 .06-.03.06v.09a1.221 1.221 0 0 1 1.26-1.05c.63 0 .81.48.72 1.05z" class="cls-2" data-name="Path 571" transform="translate(-198.304 -34.503)"/>
        <path id="Path_572" d="M262.139 51.937a8.447 8.447 0 0 0-1.14-.63c-.33-.15-.57-.69.03-.84a5.644 5.644 0 0 1 1.559.09c-.03 0-.09-.03-.12-.03s-.09-.03 0 0c.03 0 .06.03.12.03l.36-1.17a3.9 3.9 0 0 0-1.559-.21c-.21 0-2.1-.03-2.4 1.379-.21 1.08.18 1.5.54 1.679.6.27.96.51 1.26.66a.459.459 0 0 1-.21.87 6.026 6.026 0 0 1-2.069-.15l-.21 1.2a6.19 6.19 0 0 0 1.859.21c.39 0 2.249.09 2.519-1.649a1.258 1.258 0 0 0-.539-1.439z" class="cls-2" data-name="Path 572" transform="translate(-180.838 -34.481)"/>
        <path id="Path_573" d="M220.018 45.3l-1.918 4.228-.3-4.228h-2.52l-1.38 6.987h1.589l.96-5.068.42 5.068h1.5l2.219-4.948-.93 4.948h1.619L222.6 45.3z" class="cls-2" data-name="Path 573" transform="translate(-149.753 -31.772)"/>
        <path id="Path_574" d="M245.2 49.53a1.3 1.3 0 0 0 .15-.03 1.3 1.3 0 0 1-.15.03z" class="cls-2" data-name="Path 574" transform="translate(-171.667 -34.713)"/>
        <path id="Path_575" d="M243.94 49.1a11.363 11.363 0 0 0-2.069.21l-.24 1.26a17.34 17.34 0 0 1 1.949-.18c.54.03 1.14-.06.96.81-.39.03-3.239-.39-3.689 2.009a1.538 1.538 0 0 0 1.649 1.769 2.2 2.2 0 0 0 1.32-.33l.21.33h1.47l.63-3.149c.179-.84.449-2.729-2.19-2.729zm.24 3.869a1.037 1.037 0 0 1-1.35.66c-.51-.21-.39-.81.12-1.14a1.877 1.877 0 0 1 1.35-.15z" class="cls-2" data-name="Path 575" transform="translate(-168.607 -34.433)"/>
        <path id="Path_576" d="M316.806 45.779a1.931 1.931 0 0 1 1.2.27l1.02-1.02a2.608 2.608 0 0 0-2.159-.93 3.773 3.773 0 0 0-3.539 2.939c-.81 2.939.96 4.408 2.609 4.408a4.291 4.291 0 0 0 1.919-.36l-.45-1.409c-1.619.54-2.759-.27-2.489-1.949a2.114 2.114 0 0 1 1.889-1.949z" class="cls-2" data-name="Path 576" transform="translate(-219.221 -30.932)"/>
        <path id="Path_577" d="M364.433 44.1l-.42 2.219c-.3-.21-.48-.69-1.23-.69-.87 0-2.219-.15-3 2.459-.51 1.769.51 3.359 1.649 3.359a3 3 0 0 0 1.379-.45l.21.45h1.709l1.38-7.347zm-.99 4.588c-.27.72-.66 1.17-1.23 1.17s-1.02-.63-.81-1.439c.33-1.26 1.439-1.769 1.949-1.14a2.1 2.1 0 0 1 .09 1.409z" class="cls-2" data-name="Path 577" transform="translate(-251.794 -30.932)"/>
        <path id="Path_578" d="M332.74 49.1a11.363 11.363 0 0 0-2.069.21l-.24 1.26a17.339 17.339 0 0 1 1.949-.18c.54.03 1.14-.06.96.81-.39.03-3.239-.39-3.689 2.009a1.538 1.538 0 0 0 1.649 1.769 2.2 2.2 0 0 0 1.32-.33l.21.33h1.47l.63-3.149c.209-.84.479-2.729-2.19-2.729zm.27 3.869a1.037 1.037 0 0 1-1.35.66c-.51-.21-.39-.81.12-1.14a1.877 1.877 0 0 1 1.349-.15z" class="cls-2" data-name="Path 578" transform="translate(-230.777 -34.433)"/>
        <path id="Path_579" d="M334.2 49.53c.06 0 .09-.03.12-.03-.03 0-.09.03-.12.03z" class="cls-2" data-name="Path 579" transform="translate(-233.976 -34.713)"/>
        <path id="Path_580" d="M302.979 49.968l-.15-.57h-1.349l-1.08 5.728h1.589l.48-2.639c.45-1.709 1.2-1.589 1.589-1.589l.39-1.5a2.042 2.042 0 0 0-1.469.57z" class="cls-2" data-name="Path 580" transform="translate(-210.313 -34.641)"/>
        <path id="Path_581" d="M466.461 44.626c0 1.29-.84 1.889-2.309 1.889h-2.789v-1.29h2.789a.867.867 0 0 0 .57-.15.6.6 0 0 0 .18-.39.552.552 0 0 0-.18-.42.684.684 0 0 0-.51-.15c-1.32-.06-3.029.06-3.029-1.859a1.812 1.812 0 0 1 2.069-1.8h2.879v1.29h-2.669a.981.981 0 0 0-.57.09.627.627 0 0 0-.24.48.432.432 0 0 0 .3.42 1.745 1.745 0 0 0 .57.09h.78a2.493 2.493 0 0 1 1.679.48 1.721 1.721 0 0 1 .48 1.32m-6.088-1.32a2.493 2.493 0 0 0-1.679-.48h-.78a3.235 3.235 0 0 1-.57-.09.462.462 0 0 1-.3-.42.546.546 0 0 1 .24-.48.981.981 0 0 1 .57-.09h2.669v-1.29h-2.879c-1.559 0-2.069.96-2.069 1.8 0 1.919 1.679 1.829 3.029 1.859a.684.684 0 0 1 .51.15.552.552 0 0 1 .18.42.6.6 0 0 1-.18.39.992.992 0 0 1-.57.15h-2.789v1.29h2.789c1.469 0 2.309-.6 2.309-1.889a2.144 2.144 0 0 0-.48-1.32m-5.548 1.949h-3.389v-1.23h3.329V42.8h-3.329v-1.08h3.389v-1.26H450v6.058h4.828zm-6.358-4.5a3.9 3.9 0 0 0-1.769-.3h-3.3v6.058h1.469V44.3h1.559a1.47 1.47 0 0 1 1.05.27 2.069 2.069 0 0 1 .24 1.23v.72h1.439v-1.17a1.908 1.908 0 0 0-.24-1.11 1.445 1.445 0 0 0-.75-.51 1.661 1.661 0 0 0 1.05-1.589 1.453 1.453 0 0 0-.75-1.379m-8.217-.3h-4.618l-1.859 1.979L432 40.457h-5.818v6.058h5.758l1.859-1.979 1.769 1.979h2.789v-2.039h1.829c1.23 0 2.489-.33 2.489-2.039 0-1.649-1.29-1.979-2.429-1.979m7.047 2.519a1.748 1.748 0 0 1-.69.09l-1.769.06v-1.41h1.769a1.242 1.242 0 0 1 .69.12.546.546 0 0 1 .3.51.8.8 0 0 1-.3.63m-7.047.27h-1.919v-1.53h1.919c.51 0 .87.21.87.72a.774.774 0 0 1-.87.81m-5.548.24l2.219-2.369v4.888zm-3.509 1.769h-3.569v-1.23h3.209V42.8h-3.209v-1.08h3.629l1.589 1.769zm31.249-6.6h-2.069l-2.729-4.528v4.528h-2.939l-.57-1.32h-3.029l-.57 1.32h-1.679a3.088 3.088 0 0 1-2.129-.69 3.183 3.183 0 0 1-.75-2.309 3.337 3.337 0 0 1 .78-2.369 2.943 2.943 0 0 1 2.219-.69h1.379v1.32h-1.379a1.667 1.667 0 0 0-1.14.33 1.946 1.946 0 0 0-.39 1.379 2.172 2.172 0 0 0 .39 1.439 1.448 1.448 0 0 0 .99.3h.66l2.069-4.768h2.129l2.429 5.7V32.6h2.219l2.549 4.2v-4.2h1.5v6.058zm-17.119-6.026h-1.469v6.058h1.469zm-3.089.27a3.38 3.38 0 0 0-1.739-.27h-3.3v6.058h1.41V36.5h1.559a1.692 1.692 0 0 1 1.08.24 2.036 2.036 0 0 1 .21 1.17v.78h1.5v-1.2a1.652 1.652 0 0 0-.27-1.08 1.8 1.8 0 0 0-.69-.51 1.694 1.694 0 0 0 1.05-1.589 1.5 1.5 0 0 0-.81-1.409m-6.058 4.528h-3.389V36.2h3.329v-1.23h-3.329v-1.08h3.389v-1.26h-4.858v6.058h4.858zm-5.938-4.8h-2.369l-1.765 4.108-1.889-4.109H421.9v5.7l-2.489-5.7h-2.129l-2.582 6.059h1.559l.54-1.32h3.029l.54 1.32h2.939V33.92l2.129 4.738h1.23l2.129-4.738v4.738h1.469V32.63zm23.422 3.419l-.99-2.4-.99 2.4zm-12.535-.96a1.119 1.119 0 0 1-.72.15h-1.769V33.92h1.768a1.826 1.826 0 0 1 .72.09.624.624 0 0 1 .27.57.555.555 0 0 1-.27.51m-23.841.96l1.02-2.4.99 2.4z" class="cls-1" data-name="Path 581" transform="translate(-290.335 -22.881)"/>
        <path id="Path_582" d="M416.03 11.327V3.86h49.3v14.3h1.23V2.6H414.8v11.636z" class="cls-2" data-name="Path 582" transform="translate(-290.405 -1.878)"/>
        <path id="Path_583" d="M465.332 64.907v6.6h-49.3V57.2H414.8v15.534h51.761V64.4a3.689 3.689 0 0 1-1.229.507z" class="cls-2" data-name="Path 583" transform="translate(-290.405 -40.104)"/>
        <path id="Path_584" d="M642.057 21.64a1.05 1.05 0 0 1-1.05 1.05h-7.353a1.05 1.05 0 0 1-1.05-1.05v-7.353a1.05 1.05 0 0 1 1.05-1.05h7.353a1.053 1.053 0 0 1 1.05 1.05zm6.3 5.518a1.844 1.844 0 0 1-1.838 1.832h-18.386a1.841 1.841 0 0 1-1.835-1.832V8.772a1.838 1.838 0 0 1 1.835-1.835h18.389a1.841 1.841 0 0 1 1.838 1.835zM648.885.63h-23.112A5.794 5.794 0 0 0 620 6.409v23.122a5.794 5.794 0 0 0 5.779 5.776h23.113a5.8 5.8 0 0 0 5.773-5.776V6.409a5.794 5.794 0 0 0-5.78-5.779" class="cls-2" data-name="Path 584" transform="translate(-434.067 -.498)"/>
        <path id="Path_585" d="M771.923 42.9a7.686 7.686 0 0 1-5.425-2.183 6.4 6.4 0 0 1-1.928-4.531h2.081a4.316 4.316 0 0 0 1.319 3.065 5.632 5.632 0 0 0 3.956 1.574h.018c2.9 0 5.263-2.033 5.263-4.531 0-1.874-1.038-3.359-6.079-4.528a9.029 9.029 0 0 1-4.354-2 5.08 5.08 0 0 1-1.46-3.869c0-3.257 2.921-5.911 6.514-5.911a6.9 6.9 0 0 1 4.567 1.664 5.578 5.578 0 0 1 1.964 4.219h-2.081c0-2.1-2-3.809-4.456-3.809-2.4 0-4.435 1.757-4.435 3.833 0 1.9.654 3.017 4.2 3.839 3.8.876 7.68 2.342 7.689 6.553A6.255 6.255 0 0 1 777.087 41a7.767 7.767 0 0 1-5.161 1.9h-.018z" class="cls-2" data-name="Path 585" transform="translate(-535.282 -14.052)"/>
        <path id="Path_586" d="M830.484 42.955a6.3 6.3 0 0 0-6.439 6.121v.375a6.244 6.244 0 0 0 6.091 6.388h.345a6.441 6.441 0 1 0 0-12.882m6.184 20.673v-9.115h-.06a7.176 7.176 0 0 1-6.124 3.131 8.254 8.254 0 1 1 0-16.5A7.122 7.122 0 0 1 836.6 44.3h.06v-2.755h2.012v22.084h-2.012z" class="cls-2" data-name="Path 586" transform="translate(-575.51 -28.86)"/>
        <path id="Path_587" d="M954.1 42.958a6.3 6.3 0 0 0-6.436 6.13v.366a6.241 6.241 0 0 0 6.094 6.388h.339a6.441 6.441 0 1 0 0-12.882m6.184 14.318v-2.759h-.057a7.227 7.227 0 0 1-6.127 3.134 8.254 8.254 0 1 1 0-16.5 7.038 7.038 0 0 1 6.13 3.161h.057v-2.763h2.016v15.727h-2.012z" class="cls-2" data-name="Path 587" transform="translate(-662.058 -28.863)"/>
        <path id="Path_588" d="M1016.592 48.08v9.2h-2.012V41.555h2.015v2.27h.054c.864-2.012 2.4-2.531 4.426-2.675v2.132a4.521 4.521 0 0 0-4.5 4.8" class="cls-2" data-name="Path 588" transform="translate(-710.316 -28.867)"/>
        <path id="Path_589" d="M1047.165 42.961a6.22 6.22 0 0 0-6.127 5.377h12.278a6.241 6.241 0 0 0-6.151-5.377m8.19 7.2h-14.317a6.237 6.237 0 0 0 6.1 5.7 5.947 5.947 0 0 0 5.641-3.722h2.123a8.205 8.205 0 1 1-7.758-10.985 8.4 8.4 0 0 1 8.253 8.424c0 .2-.036.372-.036.576" class="cls-2" data-name="Path 589" transform="translate(-727.397 -28.867)"/>
        <path id="Path_590" d="M901.773 58.111v-2.456h-.057a5.394 5.394 0 0 1-5.059 2.834 6.768 6.768 0 0 1-5.431-2.369 8.108 8.108 0 0 1-1.385-5.1v-8.71h2.021v8.7c0 3.263 1.185 5.662 4.8 5.662a4.522 4.522 0 0 0 3.35-1.257c1.388-1.326 1.643-2.888 1.643-4.735v-8.364h2.03v15.8z" class="cls-2" data-name="Path 590" transform="translate(-622.985 -29.679)"/>
    </g>
</svg>
